<mxfile host="Electron" modified="2025-04-04T09:33:17.420Z" agent="Mozilla/5.0 (Windows NT 10.0; Win64; x64) AppleWebKit/537.36 (KHTML, like Gecko) draw.io/22.1.2 Chrome/114.0.5735.289 Electron/25.9.4 Safari/537.36" etag="8-b-im5iUhwJexYs0nWO" version="22.1.2" type="device">
  <diagram id="R2lEEEUBdFMjLlhIrx00" name="Page-1">
    <mxGraphModel dx="1114" dy="774" grid="1" gridSize="10" guides="1" tooltips="1" connect="1" arrows="1" fold="1" page="1" pageScale="1" pageWidth="850" pageHeight="1100" math="0" shadow="0" extFonts="Permanent Marker^https://fonts.googleapis.com/css?family=Permanent+Marker">
      <root>
        <mxCell id="0" />
        <mxCell id="1" parent="0" />
        <mxCell id="p9jzy1MkE57nfW33yHj--1" value="RoomDevDB&lt;br&gt;" style="shape=cylinder;whiteSpace=wrap;html=1;boundedLbl=1;backgroundOutline=1;" vertex="1" parent="1">
          <mxGeometry x="90" y="205" width="140" height="160" as="geometry" />
        </mxCell>
        <mxCell id="p9jzy1MkE57nfW33yHj--2" value="MongoDB" style="text;html=1;strokeColor=none;fillColor=none;align=center;verticalAlign=middle;whiteSpace=wrap;rounded=0;" vertex="1" parent="1">
          <mxGeometry x="130" y="155" width="60" height="30" as="geometry" />
        </mxCell>
        <mxCell id="p9jzy1MkE57nfW33yHj--4" value="API Von RoomRev" style="shape=process;whiteSpace=wrap;html=1;backgroundOutline=1;" vertex="1" parent="1">
          <mxGeometry x="530" y="140" width="225" height="110" as="geometry" />
        </mxCell>
        <mxCell id="p9jzy1MkE57nfW33yHj--5" value="Website" style="ellipse;shape=cloud;whiteSpace=wrap;html=1;" vertex="1" parent="1">
          <mxGeometry x="540" y="410" width="250" height="140" as="geometry" />
        </mxCell>
        <mxCell id="p9jzy1MkE57nfW33yHj--6" value="" style="endArrow=classic;startArrow=classic;html=1;rounded=0;exitX=1;exitY=0.5;exitDx=0;exitDy=0;entryX=0;entryY=0.5;entryDx=0;entryDy=0;" edge="1" parent="1" source="p9jzy1MkE57nfW33yHj--10" target="p9jzy1MkE57nfW33yHj--4">
          <mxGeometry width="50" height="50" relative="1" as="geometry">
            <mxPoint x="330" y="510" as="sourcePoint" />
            <mxPoint x="380" y="460" as="targetPoint" />
          </mxGeometry>
        </mxCell>
        <mxCell id="p9jzy1MkE57nfW33yHj--7" value="" style="endArrow=classic;startArrow=classic;html=1;rounded=0;entryX=0.5;entryY=1;entryDx=0;entryDy=0;exitX=0.4;exitY=0.1;exitDx=0;exitDy=0;exitPerimeter=0;" edge="1" parent="1" source="p9jzy1MkE57nfW33yHj--12" target="p9jzy1MkE57nfW33yHj--4">
          <mxGeometry width="50" height="50" relative="1" as="geometry">
            <mxPoint x="646.25" y="378" as="sourcePoint" />
            <mxPoint x="680" y="290" as="targetPoint" />
          </mxGeometry>
        </mxCell>
        <mxCell id="p9jzy1MkE57nfW33yHj--9" value="" style="endArrow=classic;startArrow=classic;html=1;rounded=0;exitX=1;exitY=0.5;exitDx=0;exitDy=0;entryX=0;entryY=0.5;entryDx=0;entryDy=0;" edge="1" parent="1" source="p9jzy1MkE57nfW33yHj--1" target="p9jzy1MkE57nfW33yHj--10">
          <mxGeometry width="50" height="50" relative="1" as="geometry">
            <mxPoint x="230" y="285" as="sourcePoint" />
            <mxPoint x="530" y="195" as="targetPoint" />
          </mxGeometry>
        </mxCell>
        <mxCell id="p9jzy1MkE57nfW33yHj--10" value="Controllers und andere" style="rounded=0;whiteSpace=wrap;html=1;" vertex="1" parent="1">
          <mxGeometry x="320" y="210" width="120" height="60" as="geometry" />
        </mxCell>
        <mxCell id="p9jzy1MkE57nfW33yHj--11" value="" style="endArrow=classic;startArrow=classic;html=1;rounded=0;entryX=0.5;entryY=1;entryDx=0;entryDy=0;exitX=0.4;exitY=0.1;exitDx=0;exitDy=0;exitPerimeter=0;" edge="1" parent="1" source="p9jzy1MkE57nfW33yHj--5" target="p9jzy1MkE57nfW33yHj--12">
          <mxGeometry width="50" height="50" relative="1" as="geometry">
            <mxPoint x="640" y="424" as="sourcePoint" />
            <mxPoint x="643" y="250" as="targetPoint" />
          </mxGeometry>
        </mxCell>
        <mxCell id="p9jzy1MkE57nfW33yHj--12" value="Requests over JS" style="rounded=0;whiteSpace=wrap;html=1;" vertex="1" parent="1">
          <mxGeometry x="590" y="300" width="120" height="60" as="geometry" />
        </mxCell>
        <mxCell id="p9jzy1MkE57nfW33yHj--13" value="React" style="text;html=1;strokeColor=none;fillColor=none;align=center;verticalAlign=middle;whiteSpace=wrap;rounded=0;" vertex="1" parent="1">
          <mxGeometry x="635" y="570" width="60" height="30" as="geometry" />
        </mxCell>
      </root>
    </mxGraphModel>
  </diagram>
</mxfile>
